<mxfile host="app.diagrams.net" modified="2023-03-07T03:59:05.621Z" agent="5.0 (Windows NT 10.0; Win64; x64) AppleWebKit/537.36 (KHTML, like Gecko) Chrome/110.0.0.0 Safari/537.36" etag="sOIhNAtwOQfMvG62W1Lr" version="20.8.23" type="github">
  <diagram name="PÃ¡gina-1" id="umsXanYTFkSCcars_-Vj">
    <mxGraphModel dx="1434" dy="707" grid="1" gridSize="10" guides="1" tooltips="1" connect="1" arrows="1" fold="1" page="1" pageScale="1" pageWidth="827" pageHeight="1169" math="0" shadow="0">
      <root>
        <mxCell id="0" />
        <mxCell id="1" parent="0" />
        <mxCell id="TVY8Nx6I0VkV87Rxp40z-1" value="" style="strokeWidth=2;shadow=0;dashed=0;align=center;html=1;shape=mxgraph.mockup.containers.browserWindow;rSize=0;strokeColor=#666666;strokeColor2=#008cff;strokeColor3=#c4c4c4;mainText=,;recursiveResize=0;" vertex="1" parent="1">
          <mxGeometry x="70" y="160" width="680" height="440" as="geometry" />
        </mxCell>
        <mxCell id="TVY8Nx6I0VkV87Rxp40z-2" value="Page 1" style="strokeWidth=1;shadow=0;dashed=0;align=center;html=1;shape=mxgraph.mockup.containers.anchor;fontSize=17;fontColor=#666666;align=left;" vertex="1" parent="TVY8Nx6I0VkV87Rxp40z-1">
          <mxGeometry x="60" y="12" width="110" height="26" as="geometry" />
        </mxCell>
        <mxCell id="TVY8Nx6I0VkV87Rxp40z-3" value="https://www.draw.io" style="strokeWidth=1;shadow=0;dashed=0;align=center;html=1;shape=mxgraph.mockup.containers.anchor;rSize=0;fontSize=17;fontColor=#666666;align=left;" vertex="1" parent="TVY8Nx6I0VkV87Rxp40z-1">
          <mxGeometry x="130" y="60" width="250" height="26" as="geometry" />
        </mxCell>
        <mxCell id="TVY8Nx6I0VkV87Rxp40z-4" value="&lt;font style=&quot;font-size: 22px;&quot;&gt;Box Model&lt;/font&gt;" style="text;html=1;strokeColor=none;fillColor=none;align=center;verticalAlign=middle;whiteSpace=wrap;rounded=0;strokeWidth=7;perimeterSpacing=6;" vertex="1" parent="TVY8Nx6I0VkV87Rxp40z-1">
          <mxGeometry x="270" y="120" width="140" height="60" as="geometry" />
        </mxCell>
      </root>
    </mxGraphModel>
  </diagram>
</mxfile>
